<svg width="14" height="15" viewBox="0 0 14 15" fill="none" xmlns="http://www.w3.org/2000/svg">
<path d="M13.5491 12.2724L10.927 9.65069C10.8087 9.53236 10.6482 9.46661 10.4799 9.46661H10.0512C10.7771 8.53838 11.2084 7.37086 11.2084 6.10078C11.2084 3.07942 8.75987 0.631298 5.738 0.631298C2.71612 0.631298 0.267578 3.07942 0.267578 6.10078C0.267578 9.12214 2.71612 11.5703 5.738 11.5703C7.00829 11.5703 8.17601 11.139 9.10441 10.4133V10.8419C9.10441 11.0102 9.17016 11.1706 9.28851 11.2889L11.9106 13.9106C12.1578 14.1577 12.5576 14.1577 12.8022 13.9106L13.5465 13.1664C13.7937 12.9192 13.7937 12.5195 13.5491 12.2724ZM5.738 9.46661C3.87858 9.46661 2.37158 7.96251 2.37158 6.10078C2.37158 4.24168 3.87595 2.73495 5.738 2.73495C7.59741 2.73495 9.10441 4.23905 9.10441 6.10078C9.10441 7.95988 7.60004 9.46661 5.738 9.46661Z" fill="#F8A5C2"/>
</svg>
