<svg width="33" height="34" viewBox="0 0 33 34" xmlns="http://www.w3.org/2000/svg">
<g clip-path="url(#clip0)">
<path d="M32.9788 4.19425C33.1397 3.44537 32.4055 2.81393 31.6893 3.08721L0.623189 14.9465C0.2493 15.0892 0.00199595 15.4476 0.00122252 15.8478C0.000449093 16.248 0.246335 16.6073 0.619709 16.7515L9.34677 20.1221V30.7382C9.34677 31.1861 9.65427 31.5752 10.09 31.6788C10.5228 31.7817 10.9741 31.5758 11.177 31.1733L14.7864 24.0108L23.5947 30.5478C24.1305 30.9455 24.9006 30.6925 25.0956 30.0535C33.3197 3.08934 32.9642 4.26199 32.9788 4.19425ZM25.3102 7.59206L10.1765 18.3697L3.66502 15.8549L25.3102 7.59206ZM11.2803 19.9574L24.4717 10.563C13.1207 22.5376 13.7136 21.9073 13.6641 21.974C13.5905 22.0729 13.792 21.6873 11.2803 26.6714V19.9574ZM23.6461 28.1781L15.8927 22.424L29.9118 7.63459L23.6461 28.1781Z" fill="black"/>
</g>
<defs>
<clipPath id="clip0">
<rect width="33" height="33" fill="white" transform="translate(0 0.863636)"/>
</clipPath>
</defs>
</svg>
